s<?xml version="1.0" encoding="utf-8"?>
<!-- Generator: Adobe Illustrator 19.2.1, SVG Export Plug-In . SVG Version: 6.00 Build 0)  -->
<svg version="1.1" id="Layer_1" xmlns="http://www.w3.org/2000/svg" xmlns:xlink="http://www.w3.org/1999/xlink" x="0px" y="0px"
	 viewBox="0 0 44.2 38.6" style="enable-background:new 0 0 44.2 38.6;" xml:space="preserve">
<style type="text/css">
	.st0{font-family:'NettoOT-Bold';}
	.st1{font-size:36px;}
	.st2{letter-spacing:-1;}
</style>
<g>
	<path d="M39.4,19.8h-3.5c-0.5,0-0.9-0.2-1.3-0.5c-0.4-0.3-0.5-0.8-0.5-1.3c0-0.5,0.2-0.9,0.5-1.3c0.4-0.4,0.8-0.5,1.3-0.5h5
		c0.6,0,1.2,0.2,1.7,0.7c0.5,0.5,0.7,1,0.7,1.7v8.8c0,0.5-0.1,0.9-0.4,1.3c-0.3,0.4-0.6,0.7-1,0.8c-0.9,0.4-1.9,0.7-3,0.9
		c-1.1,0.2-2.3,0.3-3.4,0.3c-1.4,0-2.7-0.2-3.8-0.7c-1.1-0.4-2.1-1.1-2.9-1.9c-0.8-0.8-1.4-1.8-1.9-3c-0.4-1.2-0.7-2.4-0.7-3.8V14
		c0-1.4,0.2-2.7,0.7-3.8c0.4-1.2,1.1-2.1,1.9-3c0.8-0.8,1.8-1.4,2.9-1.9c1.1-0.4,2.4-0.7,3.8-0.7c1,0,2,0.1,3.1,0.4
		c1.1,0.3,2,0.7,2.9,1.2C41.6,6.5,41.9,6.7,42,7c0.2,0.3,0.2,0.6,0.2,0.9c0,0.5-0.2,0.9-0.5,1.2c-0.4,0.3-0.8,0.5-1.3,0.5
		c-0.3,0-0.7-0.1-1-0.3c-0.5-0.3-1.1-0.6-1.8-0.8c-0.7-0.3-1.5-0.4-2.2-0.4c-1.8,0-3.1,0.5-4,1.5c-0.9,1-1.4,2.4-1.4,4.1v7.6
		c0,1.8,0.5,3.1,1.4,4.1c0.9,1,2.3,1.5,4,1.5c0.7,0,1.4-0.1,2.1-0.2c0.7-0.1,1.3-0.3,1.9-0.5V19.8z"/>
	<text transform="matrix(1 0 0 1 -1.0002 30.5996)" class="st0 st1 st2">M</text>
</g>
</svg>
